<svg width="56" height="37" viewBox="0 0 56 37" fill="none" xmlns="http://www.w3.org/2000/svg">
<rect x="10" y="0.5" width="36" height="36" rx="18" fill="#444053"/>
<g clip-path="url(#clip0_266_347)">
<path d="M21.375 10.1875C21.0601 10.1875 20.758 10.3126 20.5353 10.5353C20.3126 10.758 20.1875 11.0601 20.1875 11.375V25.625C20.1875 25.9399 20.3126 26.242 20.5353 26.4647C20.758 26.6874 21.0601 26.8125 21.375 26.8125H35.625C35.9399 26.8125 36.242 26.6874 36.4647 26.4647C36.6874 26.242 36.8125 25.9399 36.8125 25.625V11.375C36.8125 11.0601 36.6874 10.758 36.4647 10.5353C36.242 10.3126 35.9399 10.1875 35.625 10.1875H30.2812C29.9663 10.1875 29.6643 10.3126 29.4416 10.5353C29.2189 10.758 29.0938 11.0601 29.0938 11.375V20.0354L32.2359 16.8921C32.3474 16.7806 32.4986 16.718 32.6562 16.718C32.8139 16.718 32.9651 16.7806 33.0766 16.8921C33.1881 17.0036 33.2507 17.1548 33.2507 17.3125C33.2507 17.4702 33.1881 17.6214 33.0766 17.7329L28.9204 21.8891C28.8652 21.9444 28.7997 21.9883 28.7276 22.0182C28.6554 22.0482 28.5781 22.0636 28.5 22.0636C28.4219 22.0636 28.3446 22.0482 28.2724 22.0182C28.2003 21.9883 28.1348 21.9444 28.0796 21.8891L23.9234 17.7329C23.8682 17.6777 23.8244 17.6121 23.7945 17.54C23.7646 17.4679 23.7492 17.3906 23.7492 17.3125C23.7492 17.2344 23.7646 17.1571 23.7945 17.085C23.8244 17.0129 23.8682 16.9473 23.9234 16.8921C23.9786 16.8369 24.0441 16.7931 24.1162 16.7633C24.1884 16.7334 24.2657 16.718 24.3438 16.718C24.4218 16.718 24.4991 16.7334 24.5713 16.7633C24.6434 16.7931 24.7089 16.8369 24.7641 16.8921L27.9062 20.0354V11.375C27.9062 10.7451 28.1565 10.141 28.6019 9.69562C29.0473 9.25022 29.6514 9 30.2812 9H35.625C36.2549 9 36.859 9.25022 37.3044 9.69562C37.7498 10.141 38 10.7451 38 11.375V25.625C38 26.2549 37.7498 26.859 37.3044 27.3044C36.859 27.7498 36.2549 28 35.625 28H21.375C20.7451 28 20.141 27.7498 19.6956 27.3044C19.2502 26.859 19 26.2549 19 25.625V11.375C19 10.7451 19.2502 10.141 19.6956 9.69562C20.141 9.25022 20.7451 9 21.375 9H24.3438C24.5012 9 24.6522 9.06256 24.7636 9.17391C24.8749 9.28526 24.9375 9.43628 24.9375 9.59375C24.9375 9.75122 24.8749 9.90224 24.7636 10.0136C24.6522 10.1249 24.5012 10.1875 24.3438 10.1875H21.375Z" fill="white"/>
</g>
<defs>
<clipPath id="clip0_266_347">
<rect width="19" height="19" fill="white" transform="translate(19 9)"/>
</clipPath>
</defs>
</svg>
